<svg xmlns="http://www.w3.org/2000/svg" width="173" height="28" fill="none" viewBox="0 0 173 28">
  <path fill="#248BF8" d="M.48.792h2.856l.28 3.92h.392C6.92 1.8 10.149.344 13.696.344c2.352 0 4.088.485 5.208 1.456 1.157.933 1.736 2.501 1.736 4.704V27h-3.36V4.04c-1.157-.41-2.557-.616-4.2-.616-1.867 0-3.603.355-5.208 1.064-1.568.672-2.912 1.605-4.032 2.8V27H.48V.792Zm38.787 26.712c-7.541 0-11.312-4.48-11.312-13.44 0-4.293.952-7.653 2.856-10.08 1.941-2.427 4.76-3.64 8.456-3.64 3.061 0 5.413.915 7.056 2.744 1.643 1.83 2.464 4.368 2.464 7.616 0 .373-.037.97-.112 1.792l-2.856 2.856-14.56-.112c.075 3.099.765 5.432 2.072 7 1.344 1.53 3.379 2.296 6.104 2.296 1.643 0 3.043-.168 4.2-.504 1.157-.373 2.352-.933 3.584-1.68l1.12 2.632c-1.381.821-2.763 1.456-4.144 1.904-1.344.41-2.987.616-4.928.616Zm6.048-15.008c.224-.896.336-1.792.336-2.688 0-2.016-.56-3.603-1.68-4.76-1.12-1.157-2.763-1.736-4.928-1.736-2.763 0-4.723.765-5.88 2.296-1.157 1.53-1.81 3.901-1.96 7.112l14.112-.224ZM60.818 27c-2.912-8.139-5.47-16.819-7.672-26.04L56.45.624c2.464 10.304 4.536 17.976 6.216 23.016h.448c2.502-6.31 4.555-12.152 6.16-17.528-.15-.597-.504-2.203-1.064-4.816L71.234.96c1.867 8.176 4.05 15.792 6.552 22.848h.504c1.942-5.152 4.275-12.917 7-23.296l3.248.392c-1.68 5.861-3.136 10.752-4.368 14.672A164.886 164.886 0 0 1 80.194 27h-4.256c-2.165-5.824-3.92-11.125-5.264-15.904h-.28c-.746 2.24-2.314 6.645-4.704 13.216L64.682 27h-3.864Zm42.229.448c-4.219 0-7.803-.728-10.752-2.184l2.352-6.44c1.344.56 2.725.99 4.144 1.288 1.418.299 2.744.448 3.976.448 1.568 0 2.912-.093 4.032-.28.186-.224.28-.56.28-1.008 0-.448-.262-.784-.784-1.008-.486-.224-1.587-.541-3.304-.952-2.576-.597-4.574-1.195-5.992-1.792-1.419-.635-2.52-1.512-3.304-2.632-.784-1.12-1.176-2.67-1.176-4.648 0-5.488 3.92-8.232 11.76-8.232 1.792 0 3.565.187 5.32.56 1.792.336 3.304.784 4.536 1.344V3.76c0 .747-.075 1.736-.224 2.968-.15 1.195-.318 2.053-.504 2.576h-6.72l-.448-2.52a12.911 12.911 0 0 0-2.52-.224c-1.942 0-2.912.616-2.912 1.848 0 .71.354 1.213 1.064 1.512.709.299 2.053.653 4.032 1.064 2.202.448 3.957.952 5.264 1.512 1.306.523 2.314 1.344 3.024 2.464.746 1.083 1.12 2.595 1.12 4.536 0 2.65-.971 4.648-2.912 5.992-1.904 1.307-5.022 1.96-9.352 1.96Zm30.321-.112c-4.443 0-7.859-1.12-10.248-3.36-2.352-2.24-3.528-5.544-3.528-9.912 0-4.592 1.138-8.083 3.416-10.472 2.277-2.39 5.562-3.584 9.856-3.584 3.808 0 6.738 1.008 8.792 3.024 2.09 1.979 3.136 4.704 3.136 8.176 0 .56-.019.99-.056 1.288l-4.088 4.032-12.992-.112c0 1.307.448 2.296 1.344 2.968.933.635 2.482.952 4.648.952 1.941 0 3.621-.187 5.04-.56a18.71 18.71 0 0 0 4.088-1.736l2.016 6.384c-1.419.933-3.043 1.661-4.872 2.184-1.792.485-3.976.728-6.552.728Zm3.528-16.352c.112-.41.168-.747.168-1.008 0-.933-.411-1.661-1.232-2.184-.822-.56-1.867-.84-3.136-.84-1.755 0-3.024.373-3.808 1.12-.784.71-1.214 1.755-1.288 3.136l9.296-.224Zm19.618 16.464c-2.688 0-4.686-.635-5.992-1.904-1.27-1.27-1.904-3.136-1.904-5.6 0-5.787 4.33-8.68 12.992-8.68.709 0 1.68.056 2.912.168V8.968c0-.97-.224-1.605-.672-1.904-.411-.336-1.176-.504-2.296-.504-1.008 0-1.904.075-2.688.224l-.56 2.688h-6.944a17.299 17.299 0 0 1-.729-5.04v-1.4A24.866 24.866 0 0 1 155.842.96c1.829-.485 3.976-.728 6.44-.728 3.434 0 6.066.69 7.896 2.072 1.829 1.381 2.744 3.435 2.744 6.16V27h-7.056l-.504-3.696h-.448c-1.046 1.419-2.222 2.464-3.528 3.136-1.27.672-2.894 1.008-4.872 1.008Zm2.912-6.776c1.082 0 2.034-.168 2.856-.504.821-.336 1.605-.84 2.352-1.512v-1.96c-1.046-.187-2.315-.28-3.808-.28-1.158 0-2.259.13-3.304.392-.224.523-.336 1.157-.336 1.904 0 1.307.746 1.96 2.24 1.96Z"/>
</svg>
