<svg xmlns="http://www.w3.org/2000/svg" width="241" height="39" fill="none" viewBox="0 0 241 39">
  <path fill="#248BF8" d="M.24 1.496h3.978l.39 5.46h.546C9.21 2.9 13.708.872 18.648.872c3.276 0 5.694.676 7.254 2.028 1.612 1.3 2.418 3.484 2.418 6.552V38h-4.68V6.02c-1.612-.572-3.562-.858-5.85-.858-2.6 0-5.018.494-7.254 1.482-2.184.936-4.056 2.236-5.616 3.9V38H.24V1.496Zm54.025 37.206c-10.504 0-15.756-6.24-15.756-18.72 0-5.98 1.326-10.66 3.978-14.04 2.704-3.38 6.63-5.07 11.778-5.07 4.264 0 7.54 1.274 9.828 3.822 2.288 2.548 3.432 6.084 3.432 10.608 0 .52-.052 1.352-.156 2.496l-3.978 3.978-20.28-.156c.104 4.316 1.066 7.566 2.886 9.75 1.872 2.132 4.706 3.198 8.502 3.198 2.288 0 4.238-.234 5.85-.702 1.612-.52 3.276-1.3 4.992-2.34l1.56 3.666c-1.924 1.144-3.848 2.028-5.772 2.652-1.872.572-4.16.858-6.864.858Zm8.424-20.904c.312-1.248.468-2.496.468-3.744 0-2.808-.78-5.018-2.34-6.63-1.56-1.612-3.848-2.418-6.864-2.418-3.848 0-6.578 1.066-8.19 3.198-1.612 2.132-2.522 5.434-2.73 9.906l19.656-.312ZM84.283 38c-4.056-11.336-7.618-23.426-10.686-36.27l4.602-.468C81.63 15.614 84.517 26.3 86.857 33.32h.624c3.484-8.788 6.344-16.926 8.58-24.414-.208-.832-.702-3.068-1.482-6.708l4.212-.468c2.6 11.388 5.642 21.996 9.126 31.824h.702c2.704-7.176 5.954-17.992 9.75-32.448l4.524.546c-2.34 8.164-4.368 14.976-6.084 20.436A229.656 229.656 0 0 1 111.271 38h-5.928c-3.016-8.112-5.46-15.496-7.332-22.152h-.39c-1.04 3.12-3.224 9.256-6.552 18.408L89.665 38h-5.382Zm58.818.624c-5.876 0-10.868-1.014-14.976-3.042l3.276-8.97a32.249 32.249 0 0 0 5.772 1.794c1.976.416 3.822.624 5.538.624 2.184 0 4.056-.13 5.616-.39.26-.312.39-.78.39-1.404 0-.624-.364-1.092-1.092-1.404-.676-.312-2.21-.754-4.602-1.326-3.588-.832-6.37-1.664-8.346-2.496-1.976-.884-3.51-2.106-4.602-3.666-1.092-1.56-1.638-3.718-1.638-6.474 0-7.644 5.46-11.466 16.38-11.466 2.496 0 4.966.26 7.41.78 2.496.468 4.602 1.092 6.318 1.872V5.63c0 1.04-.104 2.418-.312 4.134-.208 1.664-.442 2.86-.702 3.588h-9.36l-.624-3.51c-1.04-.208-2.21-.312-3.51-.312-2.704 0-4.056.858-4.056 2.574 0 .988.494 1.69 1.482 2.106.988.416 2.86.91 5.616 1.482 3.068.624 5.512 1.326 7.332 2.106 1.82.728 3.224 1.872 4.212 3.432 1.04 1.508 1.56 3.614 1.56 6.318 0 3.692-1.352 6.474-4.056 8.346-2.652 1.82-6.994 2.73-13.026 2.73Zm42.232-.156c-6.188 0-10.946-1.56-14.274-4.68-3.276-3.12-4.914-7.722-4.914-13.806 0-6.396 1.586-11.258 4.758-14.586 3.172-3.328 7.748-4.992 13.728-4.992 5.304 0 9.386 1.404 12.246 4.212 2.912 2.756 4.368 6.552 4.368 11.388 0 .78-.026 1.378-.078 1.794l-5.694 5.616-18.096-.156c0 1.82.624 3.198 1.872 4.134 1.3.884 3.458 1.326 6.474 1.326 2.704 0 5.044-.26 7.02-.78a26.032 26.032 0 0 0 5.694-2.418l2.808 8.892c-1.976 1.3-4.238 2.314-6.786 3.042-2.496.676-5.538 1.014-9.126 1.014Zm4.914-22.776c.156-.572.234-1.04.234-1.404 0-1.3-.572-2.314-1.716-3.042-1.144-.78-2.6-1.17-4.368-1.17-2.444 0-4.212.52-5.304 1.56-1.092.988-1.69 2.444-1.794 4.368l12.948-.312Zm27.325 22.932c-3.744 0-6.526-.884-8.346-2.652-1.768-1.768-2.652-4.368-2.652-7.8 0-8.06 6.032-12.09 18.096-12.09.988 0 2.34.078 4.056.234v-3.432c0-1.352-.312-2.236-.936-2.652-.572-.468-1.638-.702-3.198-.702-1.404 0-2.652.104-3.744.312l-.78 3.744h-9.672c-.676-2.236-1.014-4.576-1.014-7.02v-1.95a34.594 34.594 0 0 1 7.254-2.886c2.548-.676 5.538-1.014 8.97-1.014 4.784 0 8.45.962 10.998 2.886 2.548 1.924 3.822 4.784 3.822 8.58V38h-9.828l-.702-5.148h-.624c-1.456 1.976-3.094 3.432-4.914 4.368-1.768.936-4.03 1.404-6.786 1.404Zm4.056-9.438c1.508 0 2.834-.234 3.978-.702 1.144-.468 2.236-1.17 3.276-2.106v-2.73c-1.456-.26-3.224-.39-5.304-.39-1.612 0-3.146.182-4.602.546-.312.728-.468 1.612-.468 2.652 0 1.82 1.04 2.73 3.12 2.73Z"/>
</svg>
